# xmcd
#
# Track frame offsets: 
#        150
#        15717
#        29166
#        43683
#        59949
#        74226
#        93966
#        106115
#        122313
#        138114
#        152466
#        163767
#        182730
#        195787
#
# Disc length: 2720 seconds
#
# Revision: 0
# Processed by: cddbd v1.5.2PL0 Copyright (c) Steve Scherf et al.
# Submitted via: ExactAudioCopy v0.99pb5
#
DISCID=bb0a9e0e
DTITLE=Calvin B Streets - He Ain't Done With Me Yet
DYEAR=2005
DGENRE=Blues
TTITLE0=Further On Up The Road
TTITLE1=Blue Ox Blues
TTITLE2=I Ain't Superstitious
TTITLE3=Step Back
TTITLE4=Ragtime Fantasy
TTITLE5=Quick Change
TTITLE6=It's All About Me
TTITLE7=I'm Tore Down
TTITLE8=To The Core
TTITLE9=Just You And Me
TTITLE10=Coney Island Rhapsody
TTITLE11=The Ballad Of Paul Bunyan
TTITLE12=I Wanna Have A Christmas
TTITLE13=Chet's Theme
EXTD=
EXTT0=
EXTT1=
EXTT2=
EXTT3=
EXTT4=
EXTT5=
EXTT6=
EXTT7=
EXTT8=
EXTT9=
EXTT10=
EXTT11=
EXTT12=
EXTT13=
PLAYORDER=
